<svg width="148" height="118" viewBox="0 0 148 118" fill="none" xmlns="http://www.w3.org/2000/svg">
<g clip-path="url(#clip0)">
<path fill-rule="evenodd" clip-rule="evenodd" d="M30.7401 0.0143433C22.2954 0.0143433 16.0467 7.41028 16.3265 15.431C16.5951 23.1367 16.2462 33.1167 13.7354 41.2555C11.2156 49.417 6.95716 54.589 0 55.2528V62.7477C6.95716 63.4129 11.2156 68.5823 13.7351 76.745C16.2462 84.8837 16.5948 94.8637 16.3262 102.569C16.0464 110.589 22.2951 117.986 30.7412 117.986H117.271C125.716 117.986 131.963 110.59 131.684 102.569C131.415 94.8637 131.764 84.8837 134.275 76.745C136.794 68.5823 141.043 63.4109 148 62.7477V55.2528C141.043 54.5875 136.795 49.4182 134.275 41.2555C131.764 33.1179 131.415 23.1367 131.684 15.431C131.963 7.41144 125.716 0.0143433 117.271 0.0143433H30.7389H30.7401ZM100.339 72.6337C100.339 83.6779 92.1063 90.3759 78.4438 90.3759H55.1864C54.5211 90.3759 53.883 90.1114 53.4126 89.6407C52.9422 89.1699 52.6779 88.5315 52.6779 87.8658V30.1349C52.6779 29.4692 52.9422 28.8308 53.4126 28.3601C53.883 27.8893 54.5211 27.6249 55.1864 27.6249H78.3114C89.7036 27.6249 97.1802 33.7996 97.1802 43.2799C97.1802 49.9339 92.1505 55.8909 85.7429 56.9345V57.2815C94.4656 58.2389 100.339 64.2841 100.339 72.6337V72.6337ZM75.9078 35.5817H62.6468V54.3246H73.8159C82.4502 54.3246 87.211 50.8456 87.211 44.6272C87.2102 38.7995 83.117 35.5817 75.9078 35.5817ZM62.6468 61.7613V82.4165H76.3957C85.3856 82.4165 90.1473 78.807 90.1473 72.0237C90.1473 65.2403 85.252 61.7602 75.8176 61.7602H62.6468V61.7613Z" fill="#7952B3"/>
</g>
<defs>
<clipPath id="clip0">
<rect width="148" height="118" fill="white"/>
</clipPath>
</defs>
</svg>
