<svg width="111" height="133" viewBox="0 0 111 133" fill="none" xmlns="http://www.w3.org/2000/svg">
<path d="M35.709 132.991C27.7166 129.544 20.2376 120.783 20.2198 111.819C20.198 102.045 26.4055 93.7475 34.1261 88.2945C33.1979 91.7934 32.6917 94.9939 34.9912 98.1236C37.1288 101.033 40.8728 102.447 44.408 101.68C52.6683 99.8756 53.0472 90.815 48.1502 85.5362C43.3084 80.3087 38.6246 74.4039 40.4676 66.823C41.3902 63.0228 43.7287 59.4631 46.6913 56.9187C44.4141 62.8897 50.8851 68.7782 55.1486 71.7114C62.5444 76.8002 70.659 80.6461 77.4593 86.6116C84.6122 92.881 89.8944 101.358 88.8278 111.19C87.6719 121.847 79.185 129.258 69.6655 133C89.7816 128.57 110.567 112.992 110.993 90.732C111.346 72.4186 98.7547 58.3248 83.1578 50.2561L82.3429 49.8122C82.771 50.8486 82.9111 51.7301 82.8949 52.5193C83.0344 51.9373 83.1293 51.3392 83.1561 50.7222C83.1523 51.4552 83.0563 52.1849 82.8703 52.894L82.8949 52.5193C82.6633 53.4915 82.2732 54.4192 81.7401 55.2653L81.9689 55.0197C78.8574 60.1693 70.4335 61.2875 66.2721 55.9553C59.5824 47.378 66.4122 38.1303 67.3677 29.0474C68.5638 17.664 61.4091 6.61308 52.5382 0C57.4241 7.88613 50.9872 18.3195 45.8373 24.1524C40.8437 29.8065 34.7707 34.5272 29.2581 39.6645C23.3364 45.1822 17.6434 50.9945 12.776 57.4706C3.0411 70.4328 -2.9186 86.7352 1.46104 102.906C5.83789 119.066 19.8665 129.353 35.709 132.991Z" fill="#EE4323"/>
</svg>
