<svg width="139" height="137" viewBox="0 0 139 137" fill="none" xmlns="http://www.w3.org/2000/svg">
<path d="M33.6586 30.6168L24.2391 21.1973L24.279 89.2845L24.3917 92.4668C24.4384 93.964 24.7162 95.6537 25.1796 97.4048L99.8159 123.723L118.473 115.457L118.48 115.434L33.6586 30.6168Z" fill="#00D2B8"/>
<path d="M25.1796 97.4048L25.1842 97.4094C25.1796 97.3786 25.1637 97.3445 25.1637 97.3126C25.1637 97.3445 25.1683 97.3741 25.1796 97.4048V97.4048ZM118.473 115.457L99.8159 123.723L25.1842 97.4094C26.6097 102.879 29.7658 109.027 33.1622 112.39L57.5188 136.607L111.675 136.678L118.48 115.434L118.473 115.457V115.457Z" fill="#55DDCA"/>
<path d="M1.24529 71.0272C-1.16622 73.6015 0.0315647 78.9119 3.91413 82.824L14.6477 93.6965L25.1796 97.4048C24.7162 95.6537 24.4384 93.964 24.3917 92.4668L24.279 89.2845L24.2391 21.1973L1.24529 71.0272Z" fill="#0081C6"/>
<path d="M100.428 22.0717C98.6773 21.6242 96.9979 21.3476 95.4756 21.2997L92.1123 21.1836L24.2391 21.1927L118.489 115.434H118.497L126.774 96.7592L100.428 22.0717Z" fill="#0079B3"/>
<path d="M100.343 22.0535C100.38 22.0614 100.408 22.0717 100.432 22.0751L100.429 22.0717C100.408 22.0614 100.38 22.0614 100.343 22.0535ZM115.4 30.0679C111.979 26.6192 105.912 23.4847 100.432 22.0751L126.774 96.7592L118.497 115.434H118.489L138.717 108.974L138.76 53.5159L115.4 30.0679V30.0679Z" fill="#00A4E4"/>
<path d="M95.4756 12.8002L90.179 5.16837C86.2748 1.30061 79.3509 -1.51416 76.7834 0.890521L24.2391 21.1927L92.1123 21.1836L95.4756 21.2997C96.9979 21.3475 98.6773 21.6242 100.428 22.0717L95.4756 12.8002Z" fill="#00D2B8"/>
</svg>
