<svg width="116" height="131" viewBox="0 0 116 131" fill="none" xmlns="http://www.w3.org/2000/svg">
<path d="M10.5565 117.905L0 0H116L105.432 117.886L57.9288 131L10.5565 117.905Z" fill="#E44D26"/>
<path d="M58 120.976L96.3844 110.379L105.416 9.64082H58V120.976Z" fill="#F16529"/>
<path d="M57.9999 53.3699H38.784L37.4566 38.5622H57.9999V24.1015H21.5854L21.9334 27.981L25.5025 67.8301H57.9999V53.3699ZM57.9999 90.9251L57.9361 90.9424L41.7631 86.5935L40.7291 75.061H26.1516L28.1864 97.7661L57.9335 105.989L57.9999 105.97V90.9251Z" fill="#EBEBEB"/>
<path d="M57.9497 53.3699V67.8301H75.8322L74.1462 86.5846L57.9497 90.9372V105.981L87.7206 97.7661L87.9384 95.3223L91.3514 57.2531L91.7057 53.3699H87.7928H57.9497ZM57.9497 24.1015V38.5622H93.0273L93.3181 35.3117L93.9799 27.981L94.3273 24.1015H57.9497Z" fill="white"/>
</svg>
