<svg width="129" height="129" viewBox="0 0 129 129" fill="none" xmlns="http://www.w3.org/2000/svg">
<path d="M0 0H129V129H0V0Z" fill="#F7DF1E"/>
<path d="M33.919 107.802L43.7905 101.827C45.6953 105.204 47.4277 108.061 51.5834 108.061C55.5668 108.061 58.0787 106.503 58.0787 100.442V59.2236H70.2012V100.613C70.2012 113.169 62.8412 118.885 52.1029 118.885C42.4052 118.885 36.7761 113.862 33.9185 107.801L33.919 107.802ZM76.7858 106.503L86.6563 100.788C89.2549 105.031 92.6321 108.148 98.6064 108.148C103.63 108.148 106.833 105.637 106.833 102.173C106.833 98.0168 103.542 96.5444 98.0002 94.1206L94.9702 92.8205C86.2239 89.0982 80.4225 84.4219 80.4225 74.5504C80.4225 65.4579 87.3497 58.5302 98.1741 58.5302C105.881 58.5302 111.423 61.215 115.406 68.2289L105.966 74.2909C103.888 70.5675 101.637 69.0956 98.1736 69.0956C94.623 69.0956 92.3716 71.3471 92.3716 74.2909C92.3716 77.9276 94.623 79.4005 99.8183 81.652L102.849 82.9505C113.154 87.3673 118.955 91.8697 118.955 102C118.955 112.912 110.383 118.886 98.8659 118.886C87.6092 118.886 80.3353 113.517 76.7853 106.503" fill="black"/>
</svg>
