<svg width="168" height="88" viewBox="0 0 168 88" fill="none" xmlns="http://www.w3.org/2000/svg">
<path fill-rule="evenodd" clip-rule="evenodd" d="M0 79.3814H5.57949V57.4043L14.1831 76.5702C15.2045 78.8688 16.5686 79.6783 19.2939 79.6783C22.0201 79.6783 23.3833 78.8688 24.4047 76.5702L33.0082 57.4043V79.3814H38.5448V57.4463C38.5448 55.3176 37.6923 54.2933 35.9464 53.7396C31.7301 52.4195 28.8759 53.5697 27.5987 56.4239L19.166 75.292L10.9891 56.4239C9.75384 53.5697 6.85766 52.4195 2.64131 53.7396C0.852435 54.2933 0.000954961 55.3166 0.000954961 57.4463V79.3814H0V79.3814ZM43.1869 61.4917H48.7234V73.5881C48.6814 74.2687 48.9363 75.8027 52.0033 75.8457C53.5364 75.8867 63.9708 75.8457 64.0558 75.8457V61.4488H69.6353C69.6773 61.4488 69.6353 81.0825 69.6353 81.1684C69.6773 86.0234 63.63 87.0448 60.8618 87.1307H43.3148V83.383C43.3148 83.383 60.8198 83.426 60.8618 83.383C64.4395 83.0422 64.0138 81.2543 64.0138 80.6577V79.2087H52.2162C46.7217 79.1247 43.2289 76.7382 43.1869 73.97C43.1869 73.7151 43.3148 61.6206 43.1869 61.4917V61.4917ZM162.824 47.5645C159.418 47.4795 156.818 47.7774 154.561 48.7568C153.923 49.0126 152.943 49.0126 152.816 49.8221C153.157 50.1609 153.241 50.7155 153.497 51.1852C154.05 52.0376 154.946 53.186 155.754 53.7826C156.607 54.4651 157.501 55.1457 158.437 55.7423C160.141 56.7637 162.015 57.3174 163.59 58.3416C164.571 58.9363 165.507 59.7048 166.444 60.3854C166.869 60.7262 167.211 61.2378 167.765 61.4497V61.3657C167.467 60.982 167.381 60.4284 167.125 60.0007L165.848 58.7235C164.614 57.1055 163.037 55.6564 161.375 54.4651C160.054 53.5277 157.073 52.2075 156.52 50.6745C156.477 50.6315 156.434 50.6315 156.434 50.5886C157.371 50.4597 158.479 50.1208 159.331 49.9061C160.78 49.5242 162.099 49.6082 163.589 49.2255C164.272 49.0116 164.952 48.8417 165.635 48.6288V48.2451C164.868 47.4786 164.358 46.4142 163.506 45.7327C161.335 43.8588 158.948 42.027 156.521 40.4939C155.158 39.5995 153.497 39.0459 152.049 38.3223C151.58 38.1094 150.727 37.9815 150.388 37.5558C149.62 36.6184 149.238 35.3832 148.642 34.2758C147.392 31.8466 146.227 29.3747 145.15 26.8645C144.426 25.2036 143.914 23.5426 143.021 22.0086C138.591 14.7681 133.863 10.3819 126.495 6.07959C124.92 5.18516 123.047 4.80237 121.044 4.33368C119.98 4.24776 118.915 4.20576 117.85 4.11985C117.21 3.86402 116.53 3.0555 115.89 2.67176C113.463 1.13871 107.202 -2.22617 105.412 2.20306C104.262 4.97133 107.116 7.6976 108.137 9.10369C108.863 10.0831 109.755 11.1913 110.268 12.2977C110.607 13.0213 110.65 13.7458 110.948 14.5123C111.672 16.4291 112.268 18.5158 113.163 20.2617C113.631 21.1562 114.141 22.0935 114.738 22.903C115.079 23.3717 115.718 23.5846 115.802 24.3511C115.206 25.2026 115.165 26.4808 114.824 27.5451C113.333 32.3581 113.886 38.2784 116.101 41.8552C116.784 42.9195 118.359 45.262 120.574 44.3686C122.491 43.5591 122.064 41.1736 122.618 39.0019C122.747 38.5333 122.661 38.1925 122.916 37.8517V37.9366C123.469 39.1289 124.066 40.2792 124.663 41.4285C125.94 43.5161 128.24 45.7307 130.2 47.1779C131.179 47.9444 131.988 49.2655 133.308 49.6903V49.6044H133.181C132.925 49.2226 132.542 49.0517 132.244 48.7529C131.477 47.9864 130.626 47.049 129.986 46.1975C128.241 43.812 126.665 41.1717 125.217 38.4454C124.535 37.1253 123.938 35.6772 123.386 34.357C123.172 33.8463 123.172 33.0798 122.704 32.781C122.064 33.7604 121.172 34.5699 120.658 35.7201C119.892 37.5519 119.765 39.8086 119.51 42.1091C119.338 42.194 119.381 42.1511 119.295 42.237C117.934 41.8962 117.464 40.4901 116.954 39.2979C115.719 36.2738 115.462 31.4188 116.57 27.926C116.868 27.0316 118.19 24.2203 117.636 23.3689C117.378 22.5594 116.57 22.0487 116.102 21.4101C115.505 20.6436 114.952 19.6212 114.527 18.7268C113.506 16.3413 113.036 13.7009 111.928 11.3164C111.374 10.1661 110.524 9.01587 109.799 8.03647C108.99 6.88621 108.095 6.07768 107.457 4.71455C107.245 4.24585 106.947 3.47933 107.245 2.96768C107.372 2.62689 107.5 2.49898 107.839 2.37107C108.393 1.94533 109.97 2.54194 110.565 2.75385C112.099 3.43542 113.419 4.03203 114.739 4.92647C115.378 5.35221 116.018 6.16073 116.785 6.37456H117.637C119 6.67238 120.532 6.45951 121.809 6.84325C124.067 7.52387 126.111 8.58917 127.944 9.78239C133.565 13.3172 138.123 18.343 141.274 24.3483C141.785 25.3276 141.998 26.2221 142.424 27.2444C143.32 29.3321 144.468 31.4608 145.363 33.4625C146.215 35.5072 147.109 37.552 148.344 39.212C149.026 40.1064 151.581 40.5751 152.731 41.0428C153.54 41.3836 154.86 41.7664 155.628 42.2361C157.118 43.0875 158.523 44.1528 159.929 45.1322C160.609 45.6057 162.738 46.6701 162.824 47.5645V47.5645Z" fill="#00678C"/>
<path fill-rule="evenodd" clip-rule="evenodd" d="M119.381 10.5537C118.793 10.5539 118.207 10.6257 117.636 10.7675V10.8525H117.763C118.104 11.534 118.701 12.0027 119.126 12.5984C119.424 13.2799 119.766 13.9615 120.064 14.6431L120.191 14.5152C120.787 14.1324 121.043 13.4508 121.043 12.3865C120.83 12.1306 120.787 11.8328 120.575 11.534C120.277 11.1073 119.766 10.8945 119.381 10.5537Z" fill="#00678C"/>
<path fill-rule="evenodd" clip-rule="evenodd" d="M73.9375 79.3814H89.9085C91.7823 79.3814 93.6132 78.9977 95.0613 78.3151C97.4458 77.2097 98.639 75.7177 98.639 73.7589V69.6705C98.639 68.0954 97.2759 66.5624 94.6795 65.5821C93.2734 65.0284 91.5695 64.7726 89.9085 64.7726H83.1797C80.9221 64.7726 79.8578 64.0901 79.6019 62.6009C79.559 62.431 79.559 62.2601 79.559 62.0902V59.5768C79.559 59.4069 79.559 59.279 79.6019 59.1091C79.8578 57.9588 80.4534 57.618 82.4132 57.4481C82.5831 57.4481 82.796 57.4052 82.9668 57.4052H98.8529V53.7005H83.2226C80.9651 53.7005 79.8148 53.8704 78.7505 54.1682C75.4285 55.2326 73.9805 56.8515 73.9805 59.7057V62.9426C73.9805 65.456 76.8337 67.5848 81.5617 68.0954C82.1153 68.0954 82.626 68.1384 83.1797 68.1384H88.9301C89.1429 68.1384 89.3548 68.1384 89.5248 68.1814C91.3146 68.3513 92.0381 68.6491 92.5918 69.2868C92.8896 69.6275 93.0185 69.9263 93.0185 70.3101V73.547C93.0185 73.9308 92.7627 74.4424 92.209 74.8672C91.7394 75.2939 90.9299 75.5497 89.8655 75.6337C89.6527 75.6337 89.4837 75.6767 89.2689 75.6767H73.9375V79.3814ZM133.308 72.9056C133.308 76.7391 136.119 78.8678 141.87 79.2945C142.381 79.3375 142.934 79.3804 143.445 79.3804H157.926V75.6738H143.359C140.079 75.6738 138.845 74.8643 138.845 72.9056V53.6985H133.307V72.9056H133.308ZM102.175 73.1184V59.9166C102.175 56.5518 104.516 54.508 109.201 53.8685C109.671 53.7826 110.225 53.7826 110.692 53.7826H121.254C121.765 53.7826 122.234 53.7826 122.788 53.8685C127.43 54.508 129.814 56.5518 129.814 59.9166V73.1184C129.814 75.8456 128.793 77.2928 126.493 78.2302L131.987 83.1711H125.514L121.084 79.2096L116.611 79.4654H110.691C109.67 79.4654 108.605 79.3384 107.412 78.9976C103.879 78.0593 102.175 76.1855 102.175 73.1184V73.1184ZM108.18 72.7795C108.18 72.9924 108.223 73.1614 108.266 73.3762C108.607 74.9082 110.054 75.7607 112.225 75.7607H117.295L112.653 71.5863H119.126L123.172 75.207C123.897 74.8233 124.408 74.2267 124.578 73.4602C124.621 73.2473 124.621 73.0783 124.621 72.9065V60.2154C124.621 60.0866 124.621 59.9176 124.578 59.7458C124.237 58.2986 122.79 57.4901 120.659 57.4901H112.226C109.756 57.4901 108.181 58.5545 108.181 60.2154V72.7795H108.18V72.7795ZM160.482 79.3814H161.292V76.3143H162.399V75.6748H159.375V76.3143H160.482V79.3814ZM166.7 79.3814H167.424V75.6748H166.316L165.338 78.2311L164.36 75.6748H163.209V79.3814H163.976V76.5702L165.04 79.3814H165.594L166.658 76.5702H166.701V79.3814H166.7Z" fill="#CE8B2C"/>
<path fill-rule="evenodd" clip-rule="evenodd" d="M1.23523 44.4554V30.4852H5.57854C6.60089 30.4852 7.32541 30.5711 7.83611 30.741C8.47472 30.9969 8.98542 31.4226 9.41116 32.1042C9.7949 32.7428 10.0078 33.5523 10.0078 34.4897C10.0078 35.7678 9.66794 36.7892 9.02838 37.5567C8.38977 38.3652 7.28151 38.749 5.70646 38.749H2.76732V44.4564H1.23523V44.4554V44.4554ZM2.76828 37.13H5.74941C6.68681 37.13 7.36742 36.9171 7.79411 36.4914C8.22081 36.0657 8.43272 35.4261 8.43272 34.5746C8.43272 34.021 8.30481 33.5523 8.09194 33.1685C7.87907 32.7428 7.62324 32.4879 7.32541 32.36C7.02759 32.1891 6.47298 32.1462 5.70741 32.1462H2.76828V37.13V37.13ZM11.4998 37.6407C11.4998 35.2982 12.0114 33.4664 13.0758 32.1891C14.1401 30.911 15.4183 30.2723 16.9933 30.2723C18.0157 30.2723 18.9531 30.5282 19.7616 31.1238C20.614 31.6775 21.2527 32.529 21.7634 33.5943C22.2321 34.7016 22.4869 35.9797 22.4869 37.4698C22.4869 39.5575 22.0182 41.2614 21.0808 42.5386C20.0165 43.9867 18.6534 44.7103 16.9924 44.7103C15.2894 44.7103 13.9263 43.9438 12.9039 42.4957C11.9685 41.1765 11.4998 39.5575 11.4998 37.6407V37.6407ZM13.0758 37.6837C13.0758 39.3866 13.4586 40.7498 14.226 41.6871C14.9496 42.6236 15.887 43.1352 16.9943 43.1352C18.1016 43.1352 19.039 42.6236 19.7626 41.6871C20.5291 40.7078 20.9128 39.3017 20.9128 37.4288C20.9128 36.2356 20.7 35.1712 20.3162 34.2338C20.0184 33.5103 19.5917 32.9136 18.996 32.4879C18.4128 32.0687 17.7116 31.8451 16.9933 31.8493C15.8431 31.8493 14.9066 32.318 14.1831 33.2544C13.4166 34.2338 13.0758 35.6819 13.0758 37.6837V37.6837ZM26.3644 44.4554L23.3403 30.4852H24.8734L26.6202 39.6425C26.8331 40.5798 26.9601 41.5592 27.1309 42.4966L27.6416 39.9412L29.8562 30.4862H31.6451L33.2631 37.5567C33.6628 39.1855 33.9754 40.8345 34.1996 42.4966C34.3275 41.6022 34.4974 40.5798 34.7532 39.4735L36.5421 30.4862H38.1181L34.967 44.4564H33.476L31.0485 33.8081L30.6648 32.1901C30.5798 32.7867 30.4519 33.3403 30.3669 33.8081L27.8975 44.4554H26.3644ZM39.5242 44.4554V30.4852H47.787V32.1471H41.0152V36.4064H47.3612V38.0674H41.0152V42.8374H48.0428V44.4554H39.5242V44.4554ZM50.1295 44.4554V30.4852H55.1983C56.2636 30.4852 57.0721 30.6131 57.5408 30.8689C58.0525 31.1248 58.4773 31.5935 58.818 32.1891C59.1159 32.7857 59.2867 33.5093 59.2867 34.2768C59.2867 35.3411 59.0309 36.1926 58.4773 36.8742C57.9236 37.5128 57.1141 37.9395 56.0498 38.1094C56.4755 38.3652 56.8163 38.6211 57.0292 38.8759C57.4979 39.4296 57.8816 40.0262 58.2214 40.6648L60.2241 44.4554H58.3073L56.7743 41.5592C56.1777 40.4099 55.7519 39.6425 55.4541 39.2597C55.1563 38.8769 54.8575 38.6211 54.5597 38.4502C54.3039 38.3223 53.9211 38.2373 53.4094 38.2373H51.6635V44.4554H50.1295V44.4554ZM51.6625 36.6613H54.8995C55.6231 36.6613 56.1767 36.5764 56.5175 36.4055C56.9003 36.2346 57.1991 35.9368 57.4119 35.596C57.6248 35.2132 57.7098 34.7865 57.7098 34.3178C57.7098 33.5943 57.5399 33.0406 57.1132 32.6149C56.6874 32.2321 56.0908 32.0183 55.2823 32.0183H51.6625V36.6613V36.6613ZM61.7142 44.4554V30.4852H69.977V32.1471H63.2473V36.4064H69.5503V38.0674H63.2473V42.8374H70.2748V44.4554H61.7142ZM72.3186 44.4554V30.4852H76.2791C77.2585 30.4852 77.983 30.5711 78.4937 30.741C79.1753 30.9539 79.7289 31.3796 80.2396 31.9763C80.7083 32.5729 81.0921 33.2964 81.3899 34.1909C81.6457 35.0853 81.7727 36.1506 81.7727 37.3858C81.7727 38.9618 81.5598 40.325 81.0911 41.4313C80.6224 42.5386 80.0268 43.3052 79.3023 43.7739C78.5787 44.2426 77.5983 44.4554 76.449 44.4554H72.3186V44.4554ZM73.8526 42.8374H76.2801C77.2595 42.8374 77.984 42.6665 78.4947 42.3267C79.0063 42.0289 79.3891 41.5172 79.6869 40.7937C80.0277 39.8572 80.1986 38.707 80.1986 37.3868C80.1986 35.9807 80.0287 34.8314 79.645 34.0219C79.2612 33.2124 78.7495 32.6588 78.1539 32.403C77.7702 32.233 77.1315 32.1471 76.2371 32.1471H73.8516V42.8374H73.8526V42.8374ZM88.7153 44.4554V30.4852H93.0185C93.912 30.4852 94.5936 30.6131 95.1052 30.9109C95.6159 31.1668 96.0426 31.5925 96.3414 32.1462C96.6803 32.7428 96.8521 33.3394 96.8521 34.063C96.8521 34.7016 96.6803 35.2562 96.4254 35.7669C96.1276 36.2776 95.7448 36.7033 95.2341 37.0011C95.8685 37.2502 96.4161 37.6796 96.8091 38.2364C97.191 38.833 97.3628 39.5565 97.3628 40.409C97.3628 41.2614 97.191 41.984 96.8521 42.6236C96.5113 43.2622 96.0426 43.7309 95.446 44.0297C94.8924 44.3275 94.0829 44.4554 93.0615 44.4554H88.7153V44.4554ZM90.2503 36.3635H92.7207C93.3584 36.3635 93.828 36.3215 94.0838 36.2356C94.5086 36.1077 94.8074 35.8528 95.0193 35.555C95.2341 35.2571 95.3172 34.8304 95.3172 34.2777C95.3172 33.7661 95.2331 33.3403 95.0613 32.9996C94.8485 32.6588 94.5936 32.4459 94.2518 32.318C93.954 32.1901 93.3565 32.1471 92.5479 32.1471H90.2493V36.3635H90.2503V36.3635ZM90.2503 42.8374H93.1025C93.6991 42.8374 94.1669 42.7525 94.4657 42.6665C94.8814 42.5052 95.2281 42.2042 95.446 41.8151C95.7018 41.4743 95.7849 40.9636 95.7849 40.4099C95.7849 39.8563 95.7009 39.4305 95.488 39.0468C95.2732 38.706 94.9773 38.4082 94.5926 38.2373C94.2518 38.0674 93.6552 37.9815 92.8887 37.9815H90.2484V42.8374H90.2503V42.8374ZM102.643 44.4554V38.5351L98.2572 30.4852H100.088L102.344 34.7016C102.776 35.479 103.174 36.275 103.537 37.0871C103.878 36.3205 104.261 35.5111 104.773 34.6166L106.988 30.4852H108.733L104.177 38.5351V44.4554H102.643V44.4554Z" fill="#00678C"/>
</svg>
