<svg width="148" height="77" viewBox="0 0 148 77" fill="none" xmlns="http://www.w3.org/2000/svg">
<path d="M74 76.551C114.869 76.551 148 59.4145 148 38.2755C148 17.1365 114.869 0 74 0C33.1309 0 0 17.1365 0 38.2755C0 59.4145 33.1309 76.551 74 76.551Z" fill="#8993BE"/>
<path fill-rule="evenodd" clip-rule="evenodd" d="M20.7806 60.9386L28.8906 20.1448H47.6432C55.7526 20.6486 59.8075 24.6772 59.8075 31.7285C59.8075 43.8155 50.1777 50.8663 41.5608 50.3625H32.4385L30.411 60.9386H20.7806ZM34.4654 42.8085L36.9999 27.6993H43.5888C47.1368 27.6993 49.6707 29.2101 49.6707 32.2317C49.1643 40.7939 45.1093 42.3047 40.5479 42.8085H34.466H34.4654ZM57.9234 50.3625L66.0328 9.56917H75.6632L73.6357 20.1448H82.7585C90.8685 20.6486 93.9094 24.6772 92.8959 29.7139L89.348 50.3625H79.2112L82.7591 31.7285C83.2655 29.2101 83.2655 27.6993 79.7182 27.6993H72.1152L67.5538 50.3625H57.9234V50.3625ZM88.6988 60.9386L96.8081 20.1448H115.561C123.671 20.6486 127.726 24.6772 127.726 31.7285C127.726 43.8155 118.096 50.8663 109.479 50.3625H100.356L98.3286 60.9386H88.6988V60.9386ZM102.383 42.8085L104.917 27.6993H111.507C115.055 27.6993 117.589 29.2101 117.589 32.2317C117.082 40.7939 113.027 42.3047 108.466 42.8085H102.384H102.383Z" fill="#232531"/>
</svg>
