<svg width="155" height="139" viewBox="0 0 155 139" fill="none" xmlns="http://www.w3.org/2000/svg">
<path d="M155 69.5158C155 59.2256 142.141 49.4736 122.427 43.4261C126.976 23.2889 124.954 7.26778 116.045 2.13849C113.991 0.935323 111.59 0.365402 108.968 0.365402V7.42609C110.421 7.42609 111.59 7.71105 112.569 8.24931C116.866 10.719 118.73 20.1227 117.277 32.2177C116.929 35.1939 116.361 38.3285 115.666 41.5264C109.473 40.0066 102.712 38.8351 95.6033 38.0752C91.3382 32.2177 86.915 26.8984 82.4603 22.244C92.7599 12.6504 102.428 7.39443 108.999 7.39443V0.33374C100.311 0.33374 88.937 6.53955 77.4368 17.3047C65.9366 6.60287 54.5628 0.46039 45.8744 0.46039V7.52108C52.4144 7.52108 62.1137 12.7454 72.4134 22.2757C67.9902 26.9301 63.5671 32.2177 59.3651 38.0752C52.2248 38.8351 45.4637 40.0066 39.2713 41.558C38.5446 38.3918 38.0075 35.3206 37.6284 32.376C36.1435 20.281 37.976 10.8773 42.2411 8.37596C43.189 7.80604 44.4211 7.55274 45.8744 7.55274V0.492052C43.2205 0.492052 40.8194 1.06197 38.7342 2.26514C29.8563 7.39443 27.8659 23.3839 32.447 43.4578C12.7956 49.5369 0 59.2573 0 69.5158C0 79.8061 12.8587 89.5581 32.5734 95.6056C28.0238 115.743 30.0459 131.764 38.9554 136.893C41.009 138.096 43.4101 138.666 46.064 138.666C54.7524 138.666 66.1262 132.46 77.6264 121.695C89.1266 132.397 100.5 138.54 109.189 138.54C111.843 138.54 114.244 137.97 116.329 136.767C125.207 131.637 127.197 115.648 122.616 95.5739C142.204 89.5264 155 79.7744 155 69.5158V69.5158ZM113.865 48.3971C112.696 52.4815 111.242 56.6926 109.599 60.9037C108.304 58.3707 106.946 55.8377 105.461 53.3047C104.007 50.7718 102.459 48.3021 100.911 45.8958C105.397 46.5607 109.726 47.3839 113.865 48.3971ZM99.3946 82.1174C96.9303 86.3918 94.4028 90.4446 91.7805 94.2124C87.073 94.624 82.3023 94.8457 77.5 94.8457C72.7293 94.8457 67.9586 94.624 63.2827 94.2441C60.6604 90.4763 58.1013 86.4552 55.637 82.2124C53.2358 78.0647 51.0559 73.8536 49.0654 69.6108C51.0243 65.3681 53.2358 61.1253 55.6054 56.9776C58.0697 52.7032 60.5972 48.6504 63.2195 44.8826C67.927 44.471 72.6977 44.2493 77.5 44.2493C82.2707 44.2493 87.0414 44.471 91.7173 44.8509C94.3396 48.6187 96.8987 52.6398 99.363 56.8826C101.764 61.0303 103.944 65.2414 105.935 69.4842C103.944 73.7269 101.764 77.9697 99.3946 82.1174ZM109.599 78.0013C111.306 82.2441 112.759 86.4868 113.959 90.6029C109.821 91.6161 105.461 92.471 100.943 93.1359C102.491 90.6979 104.039 88.1966 105.492 85.6319C106.946 83.099 108.304 80.5343 109.599 78.0013ZM77.5632 111.785C74.625 108.745 71.6867 105.358 68.7801 101.653C71.6235 101.78 74.5302 101.875 77.4684 101.875C80.4382 101.875 83.3765 101.811 86.2515 101.653C83.4081 105.358 80.4698 108.745 77.5632 111.785ZM54.0573 93.1359C49.5709 92.471 45.2426 91.6478 41.1038 90.6346C42.2727 86.5501 43.7261 82.3391 45.3689 78.128C46.6643 80.661 48.0228 83.1939 49.5077 85.7269C50.9927 88.2599 52.5092 90.7296 54.0573 93.1359ZM77.4052 27.2467C80.3435 30.2863 83.2817 33.6741 86.1883 37.3786C83.3449 37.252 80.4382 37.157 77.5 37.157C74.5302 37.157 71.5919 37.2203 68.7169 37.3786C71.5603 33.6741 74.4986 30.2863 77.4052 27.2467ZM54.0257 45.8958C52.4776 48.3338 50.9295 50.8351 49.4762 53.3997C48.0228 55.9327 46.6643 58.4657 45.3689 60.9987C43.6629 56.7559 42.2095 52.5132 41.009 48.3971C45.1478 47.4156 49.5078 46.5607 54.0257 45.8958V45.8958ZM25.4332 85.537C14.2489 80.7559 7.01386 74.4868 7.01386 69.5158C7.01386 64.5449 14.2489 58.2441 25.4332 53.4947C28.1502 52.3232 31.1201 51.2784 34.1847 50.2968C35.9855 56.5026 38.3551 62.9617 41.2933 69.5792C38.3867 76.1649 36.0487 82.5924 34.2795 88.7665C31.1517 87.785 28.1818 86.7085 25.4332 85.537ZM42.4307 130.782C38.1339 128.313 36.2699 118.909 37.7232 106.814C38.0707 103.838 38.6394 100.703 39.3345 97.5053C45.5269 99.0251 52.288 100.197 59.3967 100.956C63.6619 106.814 68.085 112.133 72.5398 116.788C62.2401 126.381 52.5724 131.637 46.0008 131.637C44.5791 131.606 43.3785 131.321 42.4307 130.782V130.782ZM117.372 106.656C118.857 118.751 117.024 128.154 112.759 130.656C111.811 131.226 110.579 131.479 109.126 131.479C102.586 131.479 92.8863 126.255 82.5866 116.724C87.0098 112.07 91.433 106.782 95.6349 100.925C102.775 100.165 109.536 98.9934 115.729 97.442C116.455 100.64 117.024 103.711 117.372 106.656V106.656ZM129.535 85.537C126.818 86.7085 123.848 87.7533 120.784 88.7348C118.983 82.529 116.613 76.0699 113.675 69.4525C116.582 62.8668 118.92 56.4393 120.689 50.2652C123.817 51.2467 126.787 52.3232 129.567 53.4947C140.751 58.2757 147.986 64.5449 147.986 69.5158C147.955 74.4868 140.72 80.7876 129.535 85.537V85.537Z" fill="#61DAFB"/>
<path d="M77.4685 83.9856C85.4426 83.9856 91.9069 77.5073 91.9069 69.5159C91.9069 61.5245 85.4426 55.0462 77.4685 55.0462C69.4943 55.0462 63.03 61.5245 63.03 69.5159C63.03 77.5073 69.4943 83.9856 77.4685 83.9856Z" fill="#61DAFB"/>
</svg>
