<svg width="166" height="100" viewBox="0 0 166 100" fill="none" xmlns="http://www.w3.org/2000/svg">
<path d="M83 0.13298C60.8669 0.13298 47.0331 11.2148 41.5 33.3776C49.8 22.2959 59.4831 18.1403 70.55 20.9109C76.8638 22.4913 81.377 27.0787 86.3725 32.1556C94.5104 40.4272 103.928 50 124.5 50C146.633 50 160.467 38.9182 166 16.7553C157.7 27.8371 148.017 31.9927 136.95 29.2221C130.636 27.6416 126.123 23.0543 121.127 17.9773C112.99 9.70576 103.572 0.13298 83 0.13298ZM41.5 50C19.3669 50 5.53312 61.0818 0 83.2447C8.3 72.1629 17.9831 68.0073 29.05 70.7779C35.3638 72.3583 39.877 76.9457 44.8725 82.0226C53.0104 90.2942 62.4283 99.867 83 99.867C105.133 99.867 118.967 88.7852 124.5 66.6223C116.2 77.7041 106.517 81.8597 95.45 79.0891C89.1362 77.5086 84.623 72.9213 79.6275 67.8443C71.4896 59.5728 62.0717 50 41.5 50Z" fill="url(#paint0_linear)"/>
<defs>
<linearGradient id="paint0_linear" x1="-4.61148" y1="32.0479" x2="138.853" y2="114.656" gradientUnits="userSpaceOnUse">
<stop stop-color="#2298BD"/>
<stop offset="1" stop-color="#0ED7B5"/>
</linearGradient>
</defs>
</svg>
